
        <svg xmlns="http://www.w3.org/2000/svg" xmlns:xlink="http://www.w3.org/1999/xlink" version="1.1" width="3169.0140845070423" height="971.8309859154929" viewBox="0 0 3169.0140845070423 971.8309859154929">
			
			<g transform="scale(8.450704225352112) translate(10, 10)">
				<defs id="SvgjsDefs4141"><linearGradient id="SvgjsLinearGradient4150"><stop id="SvgjsStop4151" stop-color="#8f5e25" offset="0"/><stop id="SvgjsStop4152" stop-color="#fbf4a1" offset="0.5"/><stop id="SvgjsStop4153" stop-color="#8f5e25" offset="1"/></linearGradient></defs><g id="SvgjsG4142" featureKey="rootContainer" transform="matrix(1,0,0,1,0,0)" fill="#000"><rect xmlns="http://www.w3.org/2000/svg" width="355" height="95" rx="10" ry="10"/></g><g id="SvgjsG4143" featureKey="nameLeftFeature-0" transform="matrix(1.5725805322784125,0,0,1.5725805322784125,17.13790391116678,27.382258653119706)" fill="#ffffff"><path d="M10.96 5.84 l0 1.8 l-7.22 0 l0 4.22 l6.72 0 l0 1.8 l-6.72 0 l0 4.54 l7.58 0 l0 1.8 l-9.5 0 l0 -14.16 l9.14 0 z M15.02 5.84 l3.68 5.44 l3.64 -5.44 l2.4 0 l-4.72 6.7 l5.2 7.46 l-2.52 0 l-4.06 -6.14 l-4.08 6.14 l-2.38 0 l5.14 -7.44 l-4.76 -6.72 l2.46 0 z M32.08 5.84 c1.3733 0 2.4566 0.34 3.25 1.02 s1.19 1.66 1.19 2.94 c0 1.24 -0.39334 2.21 -1.18 2.91 s-1.8733 1.05 -3.26 1.05 l-3.16 0 l0 6.24 l-1.92 0 l0 -14.16 l5.08 0 z M31.52 12.08 c1 0 1.7433 -0.18336 2.23 -0.55002 s0.73 -0.94332 0.73 -1.73 c0 -1.52 -0.98666 -2.28 -2.96 -2.28 l-2.6 0 l0 4.56 l2.6 0 z M40.78 5.84 l0 12.36 l6.5 0 l0 1.8 l-8.42 0 l0 -14.16 l1.92 0 z M55.74 5.48 c2.1066 0 3.8634 0.69998 5.27 2.1 s2.11 3.18 2.11 5.34 c0 1.3733 -0.31334 2.63 -0.94 3.77 s-1.51 2.0366 -2.65 2.69 s-2.4034 0.98 -3.79 0.98 c-1.3733 0 -2.6266 -0.32334 -3.76 -0.97 s-2.02 -1.54 -2.66 -2.68 s-0.96 -2.4034 -0.96 -3.79 c0 -2.1066 0.69 -3.8734 2.07 -5.3 s3.15 -2.14 5.31 -2.14 z M50.4 12.92 c0 1.6 0.49998 2.94 1.5 4.02 s2.28 1.62 3.84 1.62 c1.5333 0 2.8066 -0.53334 3.82 -1.6 s1.52 -2.4134 1.52 -4.04 c0 -1.6133 -0.5 -2.9566 -1.5 -4.03 s-2.2866 -1.61 -3.86 -1.61 c-1.52 0 -2.7866 0.53334 -3.8 1.6 s-1.52 2.4134 -1.52 4.04 z M70.96000000000001 5.84 c1.3867 0 2.4734 0.34666 3.26 1.04 s1.18 1.6667 1.18 2.92 c0 0.94666 -0.32334 1.7733 -0.97 2.48 s-1.4767 1.1267 -2.49 1.26 l-0.02 0 l4.02 6.46 l-2.4 0 l-3.6 -6.24 l-2.14 0 l0 6.24 l-1.92 0 l0 -14.16 l5.08 0 z M70.4 12.08 c1 0 1.7433 -0.18336 2.23 -0.55002 s0.73 -0.94332 0.73 -1.73 c0 -1.52 -0.98666 -2.28 -2.96 -2.28 l-2.6 0 l0 4.56 l2.6 0 z M87.24000000000001 5.84 l0 1.8 l-7.22 0 l0 4.22 l6.72 0 l0 1.8 l-6.72 0 l0 4.54 l7.58 0 l0 1.8 l-9.5 0 l0 -14.16 l9.14 0 z"/></g><g id="SvgjsG4144" featureKey="inlineSymbolFeature-0" transform="matrix(0.6119932038108233,0,0,0.6119932038108233,175.00014499860913,20)" fill="#ffffff"><path xmlns="http://www.w3.org/2000/svg" d="M50.788,89.409c-0.272,0.158-0.57,0.233-0.865,0.233c-0.595,0-1.176-0.308-1.496-0.86L27.541,52.81v35.464  c0,0.954-0.773,1.727-1.727,1.727c-0.955,0-1.727-0.772-1.727-1.727V52.842L3.221,88.782c-0.322,0.553-0.9,0.86-1.497,0.86  c-0.293,0-0.592-0.075-0.864-0.233c-0.825-0.478-1.105-1.535-0.627-2.36L23.87,46.335c0.107-0.183,0.245-0.333,0.399-0.46  c0.281-0.572,0.864-0.97,1.545-0.97c0.667,0,1.239,0.382,1.527,0.937c0.17,0.132,0.32,0.297,0.436,0.494l23.637,40.713  C51.894,87.874,51.612,88.931,50.788,89.409z M37.073,38.712c0-0.713-0.583-1.295-1.295-1.295H15.764  c-0.712,0-1.295,0.582-1.295,1.295v4.318c0,0.713,0.583,1.295,1.295,1.295h20.014c0.712,0,1.295-0.583,1.295-1.295V38.712z   M36.65,26.611c-4.246,0-8.194-1.867-10.879-5.02c-2.685,3.152-6.634,5.02-10.88,5.02c-1.959,0-3.826-0.397-5.528-1.113v14.077  c0,0.713,0.583,1.295,1.295,1.295h1.811v-2.159c0-1.817,1.478-3.295,3.295-3.295h20.014c1.816,0,3.295,1.478,3.295,3.295v2.159  h1.811c0.713,0,1.295-0.583,1.295-1.295V25.498C40.476,26.214,38.609,26.611,36.65,26.611z M56.352,24.599  c0-0.712-0.566-1.159-1.259-0.991l-10.359,2.5c-0.692,0.167-1.26,0.886-1.26,1.6v4.307c0,0.712,0.567,1.432,1.26,1.599l10.359,2.5  c0.692,0.167,1.259-0.279,1.259-0.991V24.599z M6.772,28.028H5.858v-0.863c0-0.713-0.583-1.295-1.295-1.295H2.808  c-0.712,0-1.295,0.583-1.295,1.295v7.771c0,0.713,0.583,1.296,1.295,1.296h1.754c0.713,0,1.295-0.583,1.295-1.296v-0.863h0.915  c0.712,0,1.295-0.583,1.295-1.295v-3.455C8.068,28.61,7.485,28.028,6.772,28.028z M48.957,12.306c0,6.796-5.51,12.305-12.307,12.305  c-4.721,0-8.815-2.661-10.879-6.563c-2.064,3.901-6.159,6.563-10.88,6.563c-6.796,0-12.306-5.509-12.306-12.305  C2.585,5.51,8.095,0,14.891,0c4.721,0,8.816,2.662,10.88,6.563C27.834,2.662,31.929,0,36.65,0C43.447,0,48.957,5.51,48.957,12.306z   M18.583,12.306c0-2.039-1.653-3.692-3.691-3.692s-3.692,1.653-3.692,3.692c0,2.039,1.653,3.691,3.692,3.691  S18.583,14.345,18.583,12.306z M40.342,12.306c0-2.039-1.652-3.692-3.692-3.692c-2.038,0-3.691,1.653-3.691,3.692  c0,2.039,1.653,3.691,3.691,3.691C38.69,15.997,40.342,14.345,40.342,12.306z"/></g><g id="SvgjsG4145" featureKey="nameRightFeature-0" transform="matrix(1.4516031234161615,0,0,1.4516031234161615,219.97103164562316,29.045214855992302)" fill="#ffffff"><path d="M11.440000000000001 5.48 c1.84 0 3.2 0.54006 4.08 1.6201 l-1.56 1.42 c-0.24 -0.37334 -0.58 -0.67334 -1.02 -0.9 s-0.94666 -0.34 -1.52 -0.34 c-0.82666 0 -1.49 0.20334 -1.99 0.61 s-0.75 0.93 -0.75 1.57 c0 1.0667 0.70666 1.8133 2.12 2.24 l1.78 0.58 c1 0.32 1.7633 0.76666 2.29 1.34 s0.79 1.36 0.79 2.36 c0 1.3067 -0.46334 2.3634 -1.39 3.17 s-2.1034 1.21 -3.53 1.21 c-2.04 0 -3.5466 -0.65334 -4.52 -1.96 l1.58 -1.36 c0.30666 0.48 0.72666 0.85334 1.26 1.12 s1.1133 0.4 1.74 0.4 c0.78666 0 1.4533 -0.22666 2 -0.68 s0.82 -1.0133 0.82 -1.68 c0 -0.49334 -0.16666 -0.90668 -0.5 -1.24 s-0.93334 -0.63334 -1.8 -0.9 l-1.26 -0.42 c-1.2667 -0.42666 -2.1534 -0.97 -2.66 -1.63 s-0.76 -1.51 -0.76 -2.55 c0 -1.1067 0.44666 -2.0466 1.34 -2.82 s2.0466 -1.16 3.46 -1.16 z M23.58 5.84 c1.3733 0 2.4566 0.34 3.25 1.02 s1.19 1.66 1.19 2.94 c0 1.24 -0.39334 2.21 -1.18 2.91 s-1.8733 1.05 -3.26 1.05 l-3.16 0 l0 6.24 l-1.92 0 l0 -14.16 l5.08 0 z M23.02 12.08 c1 0 1.7433 -0.18336 2.23 -0.55002 s0.73 -0.94332 0.73 -1.73 c0 -1.52 -0.98666 -2.28 -2.96 -2.28 l-2.6 0 l0 4.56 l2.6 0 z M32.28 5.84 l0 5.88 l7.34 0 l0 -5.88 l1.92 0 l0 14.16 l-1.92 0 l0 -6.48 l-7.34 0 l0 6.48 l-1.92 0 l0 -14.16 l1.92 0 z M54.32 5.84 l0 1.8 l-7.22 0 l0 4.22 l6.72 0 l0 1.8 l-6.72 0 l0 4.54 l7.58 0 l0 1.8 l-9.5 0 l0 -14.16 l9.14 0 z M62.48 5.84 c1.3867 0 2.4734 0.34666 3.26 1.04 s1.18 1.6667 1.18 2.92 c0 0.94666 -0.32334 1.7733 -0.97 2.48 s-1.4767 1.1267 -2.49 1.26 l-0.02 0 l4.02 6.46 l-2.4 0 l-3.6 -6.24 l-2.14 0 l0 6.24 l-1.92 0 l0 -14.16 l5.08 0 z M61.92 12.08 c1 0 1.7433 -0.18336 2.23 -0.55002 s0.73 -0.94332 0.73 -1.73 c0 -1.52 -0.98666 -2.28 -2.96 -2.28 l-2.6 0 l0 4.56 l2.6 0 z M78.75999999999999 5.84 l0 1.8 l-7.22 0 l0 4.22 l6.72 0 l0 1.8 l-6.72 0 l0 4.54 l7.58 0 l0 1.8 l-9.5 0 l0 -14.16 l9.14 0 z"/></g>
			</g>
		</svg>
	